<svg xmlns="http://www.w3.org/2000/svg" viewBox="0 0 120 240">
  <defs>
    <linearGradient id="body" x1="0" y1="0" x2="0" y2="1">
      <stop offset="0" stop-color="#ff8a9f"/>
      <stop offset="1" stop-color="#8f0f28"/>
    </linearGradient>
  </defs>
  <rect width="120" height="240" fill="none"/>
  <circle cx="60" cy="38" r="24" fill="#171b22" stroke="#dce6ed" stroke-width="10"/>
  <circle cx="60" cy="202" r="24" fill="#171b22" stroke="#dce6ed" stroke-width="10"/>
  <path d="M40 54h40c10 0 18 8 18 18v90c0 24-18 44-38 44s-38-20-38-44V72c0-10 8-18 18-18z" fill="url(#body)"/>
  <rect x="45" y="74" width="30" height="30" rx="11" fill="#ffd8de" opacity=".9"/>
  <rect x="48" y="112" width="24" height="56" rx="12" fill="#11181f" opacity=".7"/>
  <rect x="26" y="66" width="18" height="12" rx="6" fill="#11181f"/>
  <rect x="76" y="66" width="18" height="12" rx="6" fill="#11181f"/>
  <circle cx="60" cy="20" r="10" fill="#f6fbff"/>
  <circle cx="60" cy="220" r="8" fill="#ffce54"/>
</svg>
