<svg xmlns="http://www.w3.org/2000/svg" viewBox="0 0 140 260">
  <defs>
    <linearGradient id="paint" x1="0" y1="0" x2="0" y2="1">
      <stop offset="0" stop-color="#b5ebff"/>
      <stop offset="1" stop-color="#0a7aa4"/>
    </linearGradient>
  </defs>
  <rect width="140" height="260" fill="none"/>
  <rect x="28" y="18" width="84" height="224" rx="30" fill="url(#paint)"/>
  <rect x="40" y="42" width="60" height="62" rx="20" fill="#ebfbff" opacity=".9"/>
  <rect x="44" y="112" width="52" height="70" rx="18" fill="#0d1720" opacity=".7"/>
  <rect x="18" y="50" width="16" height="40" rx="8" fill="#0c1218"/>
  <rect x="106" y="50" width="16" height="40" rx="8" fill="#0c1218"/>
  <rect x="18" y="170" width="16" height="40" rx="8" fill="#0c1218"/>
  <rect x="106" y="170" width="16" height="40" rx="8" fill="#0c1218"/>
  <path d="M56 132h28l-8 18h10l-22 26 6-18h-12z" fill="#e9feff"/>
  <circle cx="52" cy="28" r="8" fill="#fbfdff"/>
  <circle cx="88" cy="28" r="8" fill="#fbfdff"/>
  <circle cx="52" cy="232" r="8" fill="#ff6b6b"/>
  <circle cx="88" cy="232" r="8" fill="#ff6b6b"/>
</svg>
