<svg xmlns="http://www.w3.org/2000/svg" viewBox="0 0 160 280">
  <defs>
    <linearGradient id="cab" x1="0" y1="0" x2="0" y2="1">
      <stop offset="0" stop-color="#c8f7ff"/>
      <stop offset="1" stop-color="#1480a5"/>
    </linearGradient>
    <linearGradient id="bed" x1="0" y1="0" x2="0" y2="1">
      <stop offset="0" stop-color="#f6fbff"/>
      <stop offset="1" stop-color="#9aa7b5"/>
    </linearGradient>
  </defs>
  <rect width="160" height="280" fill="none"/>
  <rect x="30" y="18" width="100" height="120" rx="24" fill="url(#cab)"/>
  <rect x="24" y="132" width="112" height="112" rx="18" fill="url(#bed)"/>
  <rect x="44" y="38" width="72" height="44" rx="14" fill="#ebfbff" opacity=".92"/>
  <rect x="50" y="92" width="60" height="30" rx="12" fill="#1b2b38" opacity=".7"/>
  <rect x="16" y="42" width="16" height="42" rx="8" fill="#0f141b"/>
  <rect x="128" y="42" width="16" height="42" rx="8" fill="#0f141b"/>
  <rect x="12" y="168" width="18" height="50" rx="9" fill="#0f141b"/>
  <rect x="130" y="168" width="18" height="50" rx="9" fill="#0f141b"/>
  <rect x="42" y="150" width="76" height="80" rx="10" fill="#d7e0e8" opacity=".8"/>
  <circle cx="54" cy="254" r="8" fill="#ff6b6b"/>
  <circle cx="106" cy="254" r="8" fill="#ff6b6b"/>
  <circle cx="54" cy="26" r="8" fill="#fbfdff"/>
  <circle cx="106" cy="26" r="8" fill="#fbfdff"/>
</svg>
